{"asset":{"version":"2.0","generator":"THREE.GLTFExporter r175"},"scenes":[{"name":"AuxScene","nodes":[9]}],"scene":0,"nodes":[{"matrix":[1,0,0,0,0,1,0,0,0,0,1,0,-16.68425001525879,0,0,1],"mesh":0},{"matrix":[1,0,0,0,0,1,0,0,0,0,1,0,-9.532150064849855,0,0,1],"mesh":1},{"matrix":[1,0,0,0,0,1,0,0,0,0,1,0,-3.7720498359680192,0,0,1],"mesh":2},{"matrix":[1,0,0,0,0,1,0,0,0,0,1,0,3.380050114440916,0,0,1],"mesh":3},{"matrix":[1,0,0,0,0,1,0,0,0,0,1,0,10.532150064849851,0,0,1],"mesh":4},{"matrix":[1,0,0,0,0,1,0,0,0,0,1,0,-13.10820004005432,-9.6,0,1],"mesh":5},{"matrix":[1,0,0,0,0,1,0,0,0,0,1,0,-5.9561000896453855,-9.6,0,1],"mesh":6},{"matrix":[1,0,0,0,0,1,0,0,0,0,1,0,1.1959998607635498,-9.6,0,1],"mesh":7},{"matrix":[1,0,0,0,0,1,0,0,0,0,1,0,8.348099811172485,-9.6,0,1],"mesh":8},{"children":[0,1,2,3,4,5,6,7,8]}],"bufferViews":[{"buffer":0,"byteOffset":0,"byteLength":11664,"target":34962,"byteStride":12},{"buffer":0,"byteOffset":11664,"byteLength":7776,"target":34962,"byteStride":8},{"buffer":0,"byteOffset":19440,"byteLength":11664,"target":34962,"byteStride":12},{"buffer":0,"byteOffset":31104,"byteLength":4176,"target":34962,"byteStride":12},{"buffer":0,"byteOffset":35280,"byteLength":2784,"target":34962,"byteStride":8},{"buffer":0,"byteOffset":38064,"byteLength":4176,"target":34962,"byteStride":12},{"buffer":0,"byteOffset":42240,"byteLength":11520,"target":34962,"byteStride":12},{"buffer":0,"byteOffset":53760,"byteLength":7680,"target":34962,"byteStride":8},{"buffer":0,"byteOffset":61440,"byteLength":11520,"target":34962,"byteStride":12},{"buffer":0,"byteOffset":72960,"byteLength":13680,"target":34962,"byteStride":12},{"buffer":0,"byteOffset":86640,"byteLength":9120,"target":34962,"byteStride":8},{"buffer":0,"byteOffset":95760,"byteLength":13680,"target":34962,"byteStride":12},{"buffer":0,"byteOffset":109440,"byteLength":16560,"target":34962,"byteStride":12},{"buffer":0,"byteOffset":126000,"byteLength":11040,"target":34962,"byteStride":8},{"buffer":0,"byteOffset":137040,"byteLength":16560,"target":34962,"byteStride":12},{"buffer":0,"byteOffset":153600,"byteLength":13680,"target":34962,"byteStride":12},{"buffer":0,"byteOffset":167280,"byteLength":9120,"target":34962,"byteStride":8},{"buffer":0,"byteOffset":176400,"byteLength":13680,"target":34962,"byteStride":12},{"buffer":0,"byteOffset":190080,"byteLength":11520,"target":34962,"byteStride":12},{"buffer":0,"byteOffset":201600,"byteLength":7680,"target":34962,"byteStride":8},{"buffer":0,"byteOffset":209280,"byteLength":11520,"target":34962,"byteStride":12},{"buffer":0,"byteOffset":220800,"byteLength":14256,"target":34962,"byteStride":12},{"buffer":0,"byteOffset":235056,"byteLength":9504,"target":34962,"byteStride":8},{"buffer":0,"byteOffset":244560,"byteLength":14256,"target":34962,"byteStride":12},{"buffer":0,"byteOffset":258816,"byteLength":8496,"target":34962,"byteStride":12},{"buffer":0,"byteOffset":267312,"byteLength":5664,"target":34962,"byteStride":8},{"buffer":0,"byteOffset":272976,"byteLength":8496,"target":34962,"byteStride":12}],"buffers":[{"byteLength":281472,"uri":"data:application/octet-stream;base64,"}],"accessors":[{"bufferView":0,"componentType":5126,"count":972,"max":[7.24399995803833,7.24399995803833,3.5],"min":[1.0920000076293945,-0.30000001192092896,-0.5],"type":"VEC3"},{"bufferView":1,"componentType":5126,"count":972,"max":[7.24399995803833,6.943999767303467],"min":[-0.30000001192092896,-2.5],"type":"VEC2"},{"bufferView":2,"componentType":5126,"count":972,"max":[1,1,1],"min":[-1,-1,-1],"type":"VEC3"},{"bufferView":3,"componentType":5126,"count":348,"max":[5.8520002365112305,7.24399995803833,3.5],"min":[1.0920000076293945,-0.30000001192092896,-0.5],"type":"VEC3"},{"bufferView":4,"componentType":5126,"count":348,"max":[7.24399995803833,6.943999767303467],"min":[-0.30000001192092896,-2.5],"type":"VEC2"},{"bufferView":5,"componentType":5126,"count":348,"max":[1,1,1],"min":[-1,-1,-1],"type":"VEC3"},{"bufferView":6,"componentType":5126,"count":960,"max":[7.24399995803833,7.24399995803833,3.5],"min":[1.0920000076293945,-0.30000001192092896,-0.5],"type":"VEC3"},{"bufferView":7,"componentType":5126,"count":960,"max":[7.24399995803833,6.943999767303467],"min":[-0.30000001192092896,-2.5],"type":"VEC2"},{"bufferView":8,"componentType":5126,"count":960,"max":[1,1,1],"min":[-1,-1,-1],"type":"VEC3"},{"bufferView":9,"componentType":5126,"count":1140,"max":[7.24399995803833,7.24399995803833,3.5],"min":[1.0920000076293945,-0.30000001192092896,-0.5],"type":"VEC3"},{"bufferView":10,"componentType":5126,"count":1140,"max":[7.24399995803833,6.943999767303467],"min":[-0.30000001192092896,-2.5],"type":"VEC2"},{"bufferView":11,"componentType":5126,"count":1140,"max":[1,1,1],"min":[-1,-1,-1],"type":"VEC3"},{"bufferView":12,"componentType":5126,"count":1380,"max":[7.24399995803833,7.24399995803833,3.5],"min":[1.0920000076293945,-0.30000001192092896,-0.5],"type":"VEC3"},{"bufferView":13,"componentType":5126,"count":1380,"max":[7.24399995803833,6.943999767303467],"min":[-0.30000001192092896,-2.5],"type":"VEC2"},{"bufferView":14,"componentType":5126,"count":1380,"max":[1,1,1],"min":[-1,-1,-1],"type":"VEC3"},{"bufferView":15,"componentType":5126,"count":1140,"max":[7.24399995803833,7.24399995803833,3.5],"min":[1.0920000076293945,-0.30000001192092896,-0.5],"type":"VEC3"},{"bufferView":16,"componentType":5126,"count":1140,"max":[7.24399995803833,6.943999767303467],"min":[-0.30000001192092896,-2.5],"type":"VEC2"},{"bufferView":17,"componentType":5126,"count":1140,"max":[1,1,1],"min":[-1,-1,-1],"type":"VEC3"},{"bufferView":18,"componentType":5126,"count":960,"max":[7.24399995803833,7.24399995803833,3.5],"min":[1.0920000076293945,-0.30000001192092896,-0.5],"type":"VEC3"},{"bufferView":19,"componentType":5126,"count":960,"max":[7.24399995803833,6.943999767303467],"min":[-0.30000001192092896,-2.5],"type":"VEC2"},{"bufferView":20,"componentType":5126,"count":960,"max":[1,1,1],"min":[-1,-1,-1],"type":"VEC3"},{"bufferView":21,"componentType":5126,"count":1188,"max":[7.24399995803833,7.24399995803833,3.5],"min":[1.0920000076293945,-0.30000001192092896,-0.5],"type":"VEC3"},{"bufferView":22,"componentType":5126,"count":1188,"max":[7.24399995803833,6.943999767303467],"min":[-0.30000001192092896,-2.5],"type":"VEC2"},{"bufferView":23,"componentType":5126,"count":1188,"max":[1,1,1],"min":[-1,-1,-1],"type":"VEC3"},{"bufferView":24,"componentType":5126,"count":708,"max":[5.8520002365112305,7.24399995803833,3.5],"min":[1.0920000076293945,-0.30000001192092896,-0.5],"type":"VEC3"},{"bufferView":25,"componentType":5126,"count":708,"max":[7.24399995803833,6.943999767303467],"min":[-0.30000001192092896,-2.5],"type":"VEC2"},{"bufferView":26,"componentType":5126,"count":708,"max":[1,1,1],"min":[-1,-1,-1],"type":"VEC3"}],"materials":[{"pbrMetallicRoughness":{"metallicFactor":1,"roughnessFactor":0.2},"doubleSided":true,"extensions":{"KHR_materials_clearcoat":{"clearcoatFactor":0.1,"clearcoatRoughnessFactor":0}}},{"pbrMetallicRoughness":{"metallicFactor":1,"roughnessFactor":0.2},"doubleSided":true,"extensions":{"KHR_materials_clearcoat":{"clearcoatFactor":0.1,"clearcoatRoughnessFactor":0}}},{"pbrMetallicRoughness":{"metallicFactor":1,"roughnessFactor":0.2},"doubleSided":true,"extensions":{"KHR_materials_clearcoat":{"clearcoatFactor":0.1,"clearcoatRoughnessFactor":0}}},{"pbrMetallicRoughness":{"metallicFactor":1,"roughnessFactor":0.2},"doubleSided":true,"extensions":{"KHR_materials_clearcoat":{"clearcoatFactor":0.1,"clearcoatRoughnessFactor":0}}},{"pbrMetallicRoughness":{"metallicFactor":1,"roughnessFactor":0.2},"doubleSided":true,"extensions":{"KHR_materials_clearcoat":{"clearcoatFactor":0.1,"clearcoatRoughnessFactor":0}}},{"pbrMetallicRoughness":{"metallicFactor":1,"roughnessFactor":0.2},"doubleSided":true,"extensions":{"KHR_materials_clearcoat":{"clearcoatFactor":0.1,"clearcoatRoughnessFactor":0}}},{"pbrMetallicRoughness":{"metallicFactor":1,"roughnessFactor":0.2},"doubleSided":true,"extensions":{"KHR_materials_clearcoat":{"clearcoatFactor":0.1,"clearcoatRoughnessFactor":0}}},{"pbrMetallicRoughness":{"metallicFactor":1,"roughnessFactor":0.2},"doubleSided":true,"extensions":{"KHR_materials_clearcoat":{"clearcoatFactor":0.1,"clearcoatRoughnessFactor":0}}},{"pbrMetallicRoughness":{"metallicFactor":1,"roughnessFactor":0.2},"doubleSided":true,"extensions":{"KHR_materials_clearcoat":{"clearcoatFactor":0.1,"clearcoatRoughnessFactor":0}}}],"meshes":[{"primitives":[{"mode":4,"attributes":{"POSITION":0,"TEXCOORD_0":1,"NORMAL":2},"material":0}]},{"primitives":[{"mode":4,"attributes":{"POSITION":3,"TEXCOORD_0":4,"NORMAL":5},"material":1}]},{"primitives":[{"mode":4,"attributes":{"POSITION":6,"TEXCOORD_0":7,"NORMAL":8},"material":2}]},{"primitives":[{"mode":4,"attributes":{"POSITION":9,"TEXCOORD_0":10,"NORMAL":11},"material":3}]},{"primitives":[{"mode":4,"attributes":{"POSITION":12,"TEXCOORD_0":13,"NORMAL":14},"material":4}]},{"primitives":[{"mode":4,"attributes":{"POSITION":15,"TEXCOORD_0":16,"NORMAL":17},"material":5}]},{"primitives":[{"mode":4,"attributes":{"POSITION":18,"TEXCOORD_0":19,"NORMAL":20},"material":6}]},{"primitives":[{"mode":4,"attributes":{"POSITION":21,"TEXCOORD_0":22,"NORMAL":23},"material":7}]},{"primitives":[{"mode":4,"attributes":{"POSITION":24,"TEXCOORD_0":25,"NORMAL":26},"material":8}]}],"extensionsUsed":["KHR_materials_clearcoat"]}